<svg width="69" height="21" viewBox="0 0 69 21" fill="none" xmlns="http://www.w3.org/2000/svg">
<path d="M9.279 10.07L4.739 0H0L6.797 15.296C6.80367 15.3107 6.81443 15.3232 6.82799 15.3319C6.84156 15.3407 6.85736 15.3453 6.8735 15.3453C6.88964 15.3453 6.90544 15.3407 6.91901 15.3319C6.93257 15.3232 6.94333 15.3107 6.95 15.296L9.279 10.07ZM19.177 0C19.177 0 13.029 13.868 12.26 15.565C10.422 19.621 9.06 20.635 7.672 20.854C7.6651 20.8545 7.6587 20.8578 7.6542 20.863C7.6497 20.8683 7.64747 20.8751 7.648 20.882C7.64853 20.8889 7.65178 20.8953 7.65703 20.8998C7.66228 20.9043 7.6691 20.9065 7.676 20.906H12.016C13.927 20.906 15.235 19.621 17.076 15.565C17.72 14.147 24 0 24 0H19.177Z" fill="#10B981"/>
<path d="M38.8295 10.7273C38.8295 12.3277 38.5218 13.6842 37.9062 14.7969C37.2907 15.9096 36.4574 16.7547 35.4062 17.3324C34.3598 17.91 33.1856 18.1989 31.8835 18.1989C30.5767 18.1989 29.4001 17.9077 28.3537 17.3253C27.3073 16.7429 26.4763 15.8977 25.8608 14.7898C25.25 13.6771 24.9446 12.3229 24.9446 10.7273C24.9446 9.12689 25.25 7.77036 25.8608 6.65767C26.4763 5.54498 27.3073 4.69981 28.3537 4.12216C29.4001 3.54451 30.5767 3.25568 31.8835 3.25568C33.1856 3.25568 34.3598 3.54451 35.4062 4.12216C36.4574 4.69981 37.2907 5.54498 37.9062 6.65767C38.5218 7.77036 38.8295 9.12689 38.8295 10.7273ZM35.2358 10.7273C35.2358 9.7803 35.1009 8.98011 34.831 8.3267C34.5658 7.67329 34.1823 7.1785 33.6804 6.84233C33.1832 6.50615 32.5843 6.33807 31.8835 6.33807C31.1875 6.33807 30.5885 6.50615 30.0866 6.84233C29.5848 7.1785 29.1989 7.67329 28.929 8.3267C28.6638 8.98011 28.5312 9.7803 28.5312 10.7273C28.5312 11.6742 28.6638 12.4744 28.929 13.1278C29.1989 13.7812 29.5848 14.276 30.0866 14.6122C30.5885 14.9484 31.1875 15.1165 31.8835 15.1165C32.5843 15.1165 33.1832 14.9484 33.6804 14.6122C34.1823 14.276 34.5658 13.7812 34.831 13.1278C35.1009 12.4744 35.2358 11.6742 35.2358 10.7273ZM43.62 3.45455L46.2763 8.04972H46.3899L49.0746 3.45455H53.0092L48.62 10.7273L53.1513 18H49.1172L46.3899 13.3551H46.2763L43.549 18H39.5433L44.0533 10.7273L39.657 3.45455H43.62ZM57.9737 18H54.1953L59.103 3.45455H63.7834L68.6911 18H64.9126L61.4964 7.11932H61.3828L57.9737 18ZM57.4695 12.2756H65.3672V14.946H57.4695V12.2756Z" fill="white"/>
</svg>
